<?xml version="1.0"?>
<svg xmlns="http://www.w3.org/2000/svg" xmlns:xlink="http://www.w3.org/1999/xlink" viewBox="0 0 512 512" width="512" height="512"><linearGradient id="a" gradientUnits="userSpaceOnUse" x1="256.018" x2="256.018" y1="14.767" y2="489.422"><stop offset="0" stop-color="#00efd1"/><stop offset="1" stop-color="#00acea"/></linearGradient><linearGradient id="b" x1="124.777" x2="124.777" xlink:href="#a" y1="14.767" y2="489.422"/><path d="m466.306 242.149c-20.43-6.168-46.306-9.8-74.306-10.407v-106.742a10.07 10.07 0 0 0 -1.494-4.978c-2.776-12.095-16.306-21.863-40.186-29.08-22.464-6.789-51.887-10.527-82.778-10.527-30.788 0-59.906 3.744-81.954 10.544-18.149 5.6-39.794 16.019-39.794 33.882a20.428 20.428 0 0 0 .278 3.31l1.1 45.554a119.737 119.737 0 0 0 -142.135 117.561c0 66.017 53.685 119.726 119.674 119.726a119.151 119.151 0 0 0 75.448-26.808c18.732 4.357 40.725 6.771 64.039 7.027 5.079 27.7 65.073 40.374 121 40.374 30.757 0 59.89-3.784 82-10.655 18.146-5.641 39.802-16.116 39.802-33.981v-109.989a9.994 9.994 0 0 0 -.127-1.915c-.638-13.881-14.233-24.945-40.567-32.896zm-95.251-61.868c0 1.349-4.785 8.224-26.524 14.8-20.331 6.15-48.417 9.678-76.989 9.678-24.737 0-48.942-2.648-68.12-7.455-.261-.066-.532-.111-.793-.155a118.75 118.75 0 0 0 -31.312-17.749l-.684-28.162a118.073 118.073 0 0 0 21.6 8.341c21.666 6.282 49.816 9.742 79.264 9.742 30.838 0 60.337-3.729 82.775-10.5a119.358 119.358 0 0 0 21.728-8.673v26.24c-1 1.197-.945 2.512-.945 3.893zm-179.593-70.125c20.191-6.227 47.2-9.7 76.04-9.7 28.564 0 56.665 3.5 77 9.651 21.741 6.571 26.498 13.393 26.498 14.734v.015c0 1.407-4.947 8.281-26.608 14.818-20.317 6.131-48.349 9.647-76.864 9.647-27.616 0-53.8-3.179-73.707-8.951-21.483-6.23-27.461-13-27.979-15.179-.036-.19-.052-.191-.054-.191.024-2 4.625-8.353 25.674-14.844zm.338 254.844a99.679 99.679 0 1 1 -67.09-173.409 100.807 100.807 0 0 1 29.514 4.421 100.251 100.251 0 0 1 68.209 75.114 103.779 103.779 0 0 1 2 20.14 99.239 99.239 0 0 1 -32.633 73.734zm25.414 2.22a119.553 119.553 0 0 0 19.248-32.92c8.467.732 17.331 1.157 26.47 1.262l.024 1.786.606 33.857a302.414 302.414 0 0 1 -46.351-3.986zm26.641-87.8c5.834.37 11.892.6 18.133.685l.631 35.448c-7.035-.091-13.885-.381-20.486-.864a120.226 120.226 0 0 0 2.307-23.424c-.003-3.927-.2-7.884-.588-11.844zm24.694-19.228c-.292-.026-.666-.045-.965-.045-9.645 0-18.891-.354-27.481-1.048a119.947 119.947 0 0 0 -17.852-37.239 348.21 348.21 0 0 0 45.254 2.9c30.9 0 60.444-3.741 82.9-10.535a120.115 120.115 0 0 0 21.595-8.625v26.226c-43 1.364-87.082 10.374-103.454 28.367zm13.148 15.862a1.676 1.676 0 0 1 .075-.37c.9-2.734 8.049-9.273 28.666-15.135 19.362-5.504 44.673-8.549 71.268-8.549h1.706c28.585 0 56.633 3.34 76.955 9.475 21.321 6.437 26.254 12.985 26.434 14.511 0 .044-.008.088-.011.132-.127 1.5-5.138 8.448-27.332 15-20.515 6.051-47.522 9.384-76.046 9.384-27.608 0-53.781-3.177-73.7-8.946-21.475-6.22-27.448-13.051-27.97-15.221-.033-.193-.042-.28-.048-.28zm205.303 110.895c0 1.366-4.6 8.31-25.743 14.882-20.24 6.29-47.256 9.754-76.055 9.754-28.906 0-55.862-3.386-75.893-9.535-21.141-6.489-25.465-13.232-25.465-14.682 0-.056 0-.112 0-.167l-.514-28.953a126.9 126.9 0 0 0 24.943 9.084c21.01 5.548 47.695 8.6 75.141 8.6 30.888 0 60.219-3.733 82.557-10.511a123.937 123.937 0 0 0 21.029-8.533zm0-58.761c0 1.041-.6 2.155-.6 3.321 0 1.352-4.679 8.231-26.252 14.778-20.507 6.222-47.762 9.649-76.737 9.649-55.374 0-92.722-12.5-100.51-22.222l-.113-8.409-.409-22.956a117.757 117.757 0 0 0 21.767 8.412c21.674 6.278 49.823 9.736 79.261 9.736 30.386 0 59.421-3.623 81.723-10.2a117.461 117.461 0 0 0 21.87-8.607z" fill="url(#a)"/><path d="m124.71 242.367a17.793 17.793 0 0 1 17.773 17.773 10.02 10.02 0 0 0 20.04 0 37.658 37.658 0 0 0 -27.523-36.359v-4.461a10 10 0 0 0 -20 0v4.345a37.74 37.74 0 0 0 9.73 74.194 17.773 17.773 0 1 1 -17.737 17.773 9.981 9.981 0 1 0 -19.962 0 37.937 37.937 0 0 0 27.969 36.474v8.694a10 10 0 0 0 20 0v-8.81a37.774 37.774 0 0 0 -10.27-74.131 17.746 17.746 0 0 1 -.02-35.492z" fill="url(#b)"/></svg>
